<?xml version="1.0" encoding="utf-8"?>
<!-- Generator: Adobe Illustrator 16.0.0, SVG Export Plug-In . SVG Version: 6.00 Build 0)  -->
<!DOCTYPE svg PUBLIC "-//W3C//DTD SVG 1.1//EN" "http://www.w3.org/Graphics/SVG/1.1/DTD/svg11.dtd">
<svg version="1.1" id="Layer_1" xmlns="http://www.w3.org/2000/svg" xmlns:xlink="http://www.w3.org/1999/xlink" x="0px" y="0px"
	 width="104.953px" height="113.86px" viewBox="0 -8.907 104.953 113.86" enable-background="new 0 -8.907 104.953 113.86"
	 xml:space="preserve">
<g id="Layer_1_1_">
	<g>
		<defs>
			<circle id="SVGID_1_" cx="52.476" cy="52.477" r="52.476"/>
		</defs>
		<clipPath id="SVGID_2_">
			<use xlink:href="#SVGID_1_"  overflow="visible"/>
		</clipPath>
		<g id="Layer_3" clip-path="url(#SVGID_2_)">
			<rect x="-3.131" y="-11.714" fill="#FFFFFF" width="110.992" height="120.112"/>
		</g>
	</g>
	<g>
		<defs>
			<circle id="SVGID_3_" cx="52.476" cy="52.477" r="52.476"/>
		</defs>
		<clipPath id="SVGID_4_">
			<use xlink:href="#SVGID_3_"  overflow="visible"/>
		</clipPath>
		<path clip-path="url(#SVGID_4_)" fill="#14162A" d="M42.378,49.272c0,0,0.237-7.541,2.666-7.308
			c2.428,0.233,2.425,2.005,2.425,2.005l-2.554,6.773L42.378,49.272z"/>
	</g>
	<g>
		<defs>
			<circle id="SVGID_5_" cx="52.476" cy="52.477" r="52.476"/>
		</defs>
		<clipPath id="SVGID_6_">
			<use xlink:href="#SVGID_5_"  overflow="visible"/>
		</clipPath>
		<path clip-path="url(#SVGID_6_)" fill="#F9BD8E" d="M70.496,56.387c-9.094,12.061-30.742-2.746-26.93-7.659
			c3.813-4.914,3.306-11.84,2.684-14.817c-10.716-10.087-5.128-15.87-3.517-15.382c1.092,0.331,4.249,0.455,4.691,3.142
			c0.442,2.684,2.232,2.018,3.125,3.585c0-0.447,2.026-6.707,2.477-8.049c0.449-1.34,0.029-14.314,0.029-14.314
			s14.102-4.669,19.907,0.04c8.478,12.544,6.005,17.907,6.446,20.145c0.67,1.343-0.915,11.183-1.366,12.747
			c0.883,6.04-1.367,12.076-2.039,12.969c-0.674,0.894-6.044,1.106-6.938,1.104s1.434,5.595,1.434,5.595"/>
	</g>
	<g>
		<defs>
			<circle id="SVGID_7_" cx="52.476" cy="52.477" r="52.476"/>
		</defs>
		<clipPath id="SVGID_8_">
			<use xlink:href="#SVGID_7_"  overflow="visible"/>
		</clipPath>
		<path clip-path="url(#SVGID_8_)" fill="#2B3252" d="M46.522,42.319c0,0-3.56,0.87-3.227,2.045
			c0.333,1.175,1.608,6.713,13.282,13.615c2.458,1.013,2.458,1.013,2.458,1.013l3.521,0.008c0,0,7.104-4.011,6.805-6.556
			c-0.446-1.646,0.699,3.55,2.318,4.225c1.618,0.675,18.393,9.77,19.897,12.288c1.504,2.519,5.844,13.601,6.002,18.13
			c0.662,4.531-0.353,8.051-0.021,9.896c0.33,1.847,0.467,2.518,0.226,5.369c-0.242,2.853,1.46,9.23,0.1,9.228
			c-1.36-0.002-77.206,0.346-77.035-0.995c0.17-1.342-26.8,2.227-24.146-5.754c0.735-2.21,0.43-2.346-0.032-3.857
			c-0.461-1.511-1.374-3.693,0.012-5.705c1.385-2.009,0.052-6.541,0.895-8.218c0.842-1.675,2.018-2.176,2.861-4.188
			c0.843-2.012,6.916-18.606,8.763-19.609c1.848-1.003,18.307-10.364,29.382-12.02c1.009-1.172,1.333-1.674,1.256-2.178
			C39.764,48.552,42.592,40.131,46.522,42.319z"/>
	</g>
	<g>
		<defs>
			<circle id="SVGID_9_" cx="52.476" cy="52.477" r="52.476"/>
		</defs>
		<clipPath id="SVGID_10_">
			<use xlink:href="#SVGID_9_"  overflow="visible"/>
		</clipPath>
		<path clip-path="url(#SVGID_10_)" fill="#14162A" d="M52.477,66.693c0,0-13.021-12.541-12.64-15.961
			C38.584,51.232,45.439,62.486,52.477,66.693z"/>
	</g>
	<g>
		<defs>
			<circle id="SVGID_11_" cx="52.476" cy="52.477" r="52.476"/>
		</defs>
		<clipPath id="SVGID_12_">
			<use xlink:href="#SVGID_11_"  overflow="visible"/>
		</clipPath>
		<path clip-path="url(#SVGID_12_)" fill="#14162A" d="M19.925,69.648c0.335,0.504,2.166,7.386,2.327,10.404
			c0.162,3.022,0.495,4.028,2.171,4.87"/>
	</g>
	<g>
		<defs>
			<circle id="SVGID_13_" cx="52.476" cy="52.477" r="52.476"/>
		</defs>
		<clipPath id="SVGID_14_">
			<use xlink:href="#SVGID_13_"  overflow="visible"/>
		</clipPath>
		<path clip-path="url(#SVGID_14_)" fill="#14162A" d="M8.354,67.668c-0.168,0.111,7.824,30.157,10.502,32.68
			c0.667,2.182,0.999,4.027,0.999,4.027s-7.175-18.973-8.68-21.658C10.008,79.357,8.354,67.668,8.354,67.668z"/>
	</g>
	<g>
		<defs>
			<circle id="SVGID_15_" cx="52.476" cy="52.477" r="52.476"/>
		</defs>
		<clipPath id="SVGID_16_">
			<use xlink:href="#SVGID_15_"  overflow="visible"/>
		</clipPath>
		<path clip-path="url(#SVGID_16_)" fill="#14162A" d="M5.314,77.252c0.167,0.924,4.506,9.292,6.188,9.658"/>
	</g>
	<g>
		<defs>
			<circle id="SVGID_17_" cx="52.476" cy="52.477" r="52.476"/>
		</defs>
		<clipPath id="SVGID_18_">
			<use xlink:href="#SVGID_17_"  overflow="visible"/>
		</clipPath>
		<path clip-path="url(#SVGID_18_)" fill="#14162A" d="M5.301,83.879c0.335,0.504,2.826,13.092,6.178,14.775"/>
	</g>
	<g>
		<defs>
			<circle id="SVGID_19_" cx="52.476" cy="52.477" r="52.476"/>
		</defs>
		<clipPath id="SVGID_20_">
			<use xlink:href="#SVGID_19_"  overflow="visible"/>
		</clipPath>
		<path clip-path="url(#SVGID_20_)" fill="#14162A" d="M0.082,93.096c0.839,0.002,2.686-0.33,3.689,1.18
			c1.004,1.515,4.348,6.386,6.025,7.06c1.676,0.677-5.021-5.881-6.354-10.077c-1.334-4.197-1.834-5.54-1.833-6.378
			c0.002-0.84-3.018-0.847-1.509-0.005c1.508,0.844,2,6.045,2.167,6.38S0.082,93.096,0.082,93.096z"/>
	</g>
	<g>
		<defs>
			<circle id="SVGID_21_" cx="52.476" cy="52.477" r="52.476"/>
		</defs>
		<clipPath id="SVGID_22_">
			<use xlink:href="#SVGID_21_"  overflow="visible"/>
		</clipPath>
		<path clip-path="url(#SVGID_22_)" fill="#14162A" d="M22.337,107.156c0,0,1.698-10.229,0.949-12.914
			c-0.75-2.686,0.007-3.602,0.003-1.801c-0.003,1.801,1.496,4.203,0.743,5.83C23.28,99.895,22.337,107.156,22.337,107.156z"/>
	</g>
	<g>
		<defs>
			<circle id="SVGID_23_" cx="52.476" cy="52.477" r="52.476"/>
		</defs>
		<clipPath id="SVGID_24_">
			<use xlink:href="#SVGID_23_"  overflow="visible"/>
		</clipPath>
		<path clip-path="url(#SVGID_24_)" fill="#14162A" d="M86.141,102.832c0,0-0.836-1.514,0.01-4.025
			c0.492-1.475,0.57-3.007,0.422-4.599c-0.105-1.123-0.326-2.274-0.594-3.456c-0.646-2.854-0.051-3.298-0.176-4.584
			c-0.13-1.287-0.783-0.337,0.125,1.286c0.911,1.622,0.061,7.828,1.736,8.335c1.677,0.508-0.003,1.342-0.003,1.342L86.141,102.832z"
			/>
	</g>
	<g>
		<defs>
			<circle id="SVGID_25_" cx="52.476" cy="52.477" r="52.476"/>
		</defs>
		<clipPath id="SVGID_26_">
			<use xlink:href="#SVGID_25_"  overflow="visible"/>
		</clipPath>
		<path clip-path="url(#SVGID_26_)" fill="#14162A" d="M11.548,64.096c0.503,0.336,2.008,1.123,2.592,3.586
			c0.583,2.459-0.256,3.297,0.747,5.146c1.002,1.848,1.166,4.194,1.497,6.042"/>
	</g>
	<g>
		<defs>
			<circle id="SVGID_27_" cx="52.476" cy="52.477" r="52.476"/>
		</defs>
		<clipPath id="SVGID_28_">
			<use xlink:href="#SVGID_27_"  overflow="visible"/>
		</clipPath>
		<path clip-path="url(#SVGID_28_)" fill="#14162A" d="M89.691,88.915c0,0,1.686-3.437,2.697-6.664
			c1.014-3.226,0.514-4.903,0.008-3.228c-0.508,1.677-2.701,7.877-2.703,8.885"/>
	</g>
	<g>
		<defs>
			<circle id="SVGID_29_" cx="52.476" cy="52.477" r="52.476"/>
		</defs>
		<clipPath id="SVGID_30_">
			<use xlink:href="#SVGID_29_"  overflow="visible"/>
		</clipPath>
		<path clip-path="url(#SVGID_30_)" fill="#14162A" d="M55.658,69.721c0.16,1.287,0.316,5.148,1.939,10.115
			c1.625,4.969,2.342,10.301,1.891,13.607c-0.452,3.309,0.921,6.908-0.023,11.084c-0.941,4.174,0.27,5.83-0.013,6.748"/>
	</g>
	<g>
		<defs>
			<circle id="SVGID_31_" cx="52.476" cy="52.477" r="52.476"/>
		</defs>
		<clipPath id="SVGID_32_">
			<use xlink:href="#SVGID_31_"  overflow="visible"/>
		</clipPath>
		<path clip-path="url(#SVGID_32_)" fill="#14162A" d="M65,66.721c0,0,6.975-6.531,6.674-7.26"/>
	</g>
	<g>
		<defs>
			<circle id="SVGID_33_" cx="52.476" cy="52.477" r="52.476"/>
		</defs>
		<clipPath id="SVGID_34_">
			<use xlink:href="#SVGID_33_"  overflow="visible"/>
		</clipPath>
		<path clip-path="url(#SVGID_34_)" fill="#3A2716" d="M50.319,27.714l-0.014,6.822c0,0-1.454,0.446-1.232,1.004
			c0.223,0.561,1.442,5.932,3.342,6.941c1.897,1.012,12.399,7.184,16.649,7.415c4.248,0.233,6.465-0.188,6.938-1.104
			c0.472-0.914,1.968-2.679,2.067-7.261c-0.027,0.221-1.271,0.664-1.607,1.446c-0.339,0.782-2.469,2.12-2.58,1.784
			c-0.111-0.336-0.445-0.895-0.445-0.895s-0.449,1.117-0.896,1.004c-0.447-0.112-4.137-0.68-4.357-1.799
			c-0.222-1.118-5.595-0.012-6.822-1.132c-1.228-1.121-1.784-1.794-2.119-2.353c-0.335-0.561-0.78-1.509-1.117-0.755
			c-0.337,0.751-3.689-1.269-4.132-2.947c-0.444-1.678,0.571-6.261-0.32-7.158C52.779,27.831,50.319,27.714,50.319,27.714z"/>
	</g>
	<g>
		<defs>
			<circle id="SVGID_35_" cx="52.476" cy="52.477" r="52.476"/>
		</defs>
		<clipPath id="SVGID_36_">
			<use xlink:href="#SVGID_35_"  overflow="visible"/>
		</clipPath>
		<path clip-path="url(#SVGID_36_)" fill="#09060D" d="M83.285,18.755c-0.419-0.782-6.633-0.409-7.305-0.015
			c-0.672,0.391-0.59,0.609-0.59,0.609s-2.351,0.079-2.77-0.006c-1.256-1.428-10.316-1.279-10.316-1.279L52.24,18.043l-0.261-0.004
			c-0.262-0.007-0.005,2.569-0.005,2.569l8.398,0.22c0,0,0.082,1.174,0.579,3.522c1.171,2.018,8.301,1.695,9.224,1.573
			c0.925-0.122,2.947-4.903,2.947-4.903l1.509,0.088c0,0,1.085,4.28,1.418,4.7c0.335,0.419,5.286-0.241,6.635-1.245
			C84.029,23.561,83.701,19.533,83.285,18.755z M70.009,24.958c-1.009,1.256-7.046-0.267-8.135-0.688
			c-1.09-0.421-0.409-4.949-0.409-4.949c5.539-0.995,9.896,0.439,10.288,1.027C72.145,20.937,71.018,23.702,70.009,24.958z
			 M82.686,23.391c-0.961,1.846-5.375,1.582-6.047,1.33c-0.671-0.254-0.494-4.615-0.494-4.615c0.842-1.592,5.285-0.828,6.127-0.658
			C83.113,19.616,82.857,21.713,82.686,23.391z"/>
	</g>
	<g>
		<defs>
			<circle id="SVGID_37_" cx="52.476" cy="52.477" r="52.476"/>
		</defs>
		<clipPath id="SVGID_38_">
			<use xlink:href="#SVGID_37_"  overflow="visible"/>
		</clipPath>
		<path clip-path="url(#SVGID_38_)" fill="#24110C" d="M46.71,38.809c0,0-8.363-9.105-10.687-20.965
			c-0.771-6.041-0.874-10.402,0.023-11.632c0.897-1.229,4.069-4.129,5.058-4.015c0.21-1.454,0.102-3.355,1.108-3.465
			c1.007-0.11,1.12,0.002,1.568-0.78C44.228-2.83,52.856-10.753,60.9-7.27c0.896-0.558,2.354-2.344,5.037-1.332
			c2.684,1.012,3,1.684,4.688,1.688c1.686,0.003,10.854,2.705,5.355,10.635c0.11,0.895,2.771,4.815,1.711,7.162
			c-1.074-1.725-3.95-7.055-4.957-6.944c-1.342-0.114-15.659,0.862-17.002,0.637c-1.008,0.445-1.565-0.451-1.68,1.563
			c-0.117,2.013-0.556,9.623-1.029,11.068c-0.476,1.446-2.477,8.049-2.477,8.049s-2.173-0.508-2.849-2.602
			c-0.675-2.094-4.094-4.275-5.649-3.922c-1.555,0.352-5.257,5.935,4.007,14.789C46.526,34.465,46.81,37.686,46.71,38.809z"/>
	</g>
	<g>
		<defs>
			<circle id="SVGID_39_" cx="52.476" cy="52.477" r="52.476"/>
		</defs>
		<clipPath id="SVGID_40_">
			<use xlink:href="#SVGID_39_"  overflow="visible"/>
		</clipPath>
		<path clip-path="url(#SVGID_40_)" fill="#3A2716" d="M56.686,3.906c0,0-2.838-6.381,2.084-7.601
			c4.924-1.222,6.061-1.218,4.875,0.01c-1.186,1.227-4.998,5.245-1.422,7.602c-1.523,0.557-5.537,0.691-5.537,0.691V3.906z"/>
	</g>
	<g>
		<defs>
			<circle id="SVGID_41_" cx="52.476" cy="52.477" r="52.476"/>
		</defs>
		<clipPath id="SVGID_42_">
			<use xlink:href="#SVGID_41_"  overflow="visible"/>
		</clipPath>
		<path clip-path="url(#SVGID_42_)" fill="#3A2716" d="M66.604,4.176c0,0-0.529-4.389,0.013-6.289
			c0.431-1.342-0.023,2.46,1.54,3.693c1.563,1.234,2.01,1.798,0.785-1.563c-1.224-3.358-3.188-7.445-0.92-4.617
			c2.267,2.829,3.127,2.664,3.27,4.622c0.781,0.559,0.546-1.902-0.673-3.693c-1.218-1.792-0.896-2.62,0.005-1.869
			c0.902,0.753,2.8,2.773,3.354,5.568c0.553,2.795,1.787,2.312,1.565,0.82c-0.222-1.49-0.44-3.28-0.552-3.728
			c-0.112-0.449,2.254-0.251,2.234,2.076c-0.022,2.327-1.24,4.523-1.24,4.523S74.3,4.675,72.958,4.642
			C71.615,4.607,66.604,4.176,66.604,4.176z"/>
	</g>
	<g>
		<defs>
			<circle id="SVGID_43_" cx="52.476" cy="52.477" r="52.476"/>
		</defs>
		<clipPath id="SVGID_44_">
			<use xlink:href="#SVGID_43_"  overflow="visible"/>
		</clipPath>
		<path clip-path="url(#SVGID_44_)" fill="#3A2716" d="M46.787,4.588c0,0-0.216-3.72,0.456-4.614
			c0.673-0.896,0.156-1.555-0.481-0.611c-0.637,0.943-1.425,3.515-0.979,4.41C46.228,4.667,46.787,4.588,46.787,4.588z"/>
	</g>
	<g>
		<defs>
			<circle id="SVGID_45_" cx="52.476" cy="52.477" r="52.476"/>
		</defs>
		<clipPath id="SVGID_46_">
			<use xlink:href="#SVGID_45_"  overflow="visible"/>
		</clipPath>
		<path clip-path="url(#SVGID_46_)" fill="#3A2716" d="M43.994,2.985c0,0-1.04-3.581,1.669-5.589
			c2.708-2.008,2.356-2.88,1.513-2.294c-0.841,0.587-5.301,4.718-4.633,6.635C43.21,3.654,43.994,2.985,43.994,2.985z"/>
	</g>
</g>
<g id="Layer_2">
	<path fill="#24110C" d="M46.71,38.809c0,0-8.363-9.105-10.687-20.965c-0.771-6.041-0.874-10.402,0.023-11.632
		c0.897-1.229,4.069-4.129,5.058-4.015c0.21-1.454,0.102-3.355,1.108-3.465c1.007-0.11,1.12,0.002,1.568-0.78
		C44.228-2.83,52.856-10.753,60.9-7.27c0.896-0.558,2.354-2.344,5.037-1.332c2.684,1.012,3,1.684,4.688,1.688
		c1.686,0.003,10.854,2.705,5.355,10.635c0.11,0.895,3.141,4.833,1.621,7.625c-1.074-1.725-3.859-7.518-4.867-7.407
		c-1.34-0.114-15.658,0.862-17.002,0.637c-1.006,0.445-1.564-0.451-1.68,1.563c-0.117,2.013-0.555,9.623-1.029,11.068
		c-0.475,1.446-2.476,8.049-2.476,8.049s-2.173-0.508-2.849-2.602c-0.675-2.094-4.094-4.275-5.649-3.922
		c-1.555,0.352-5.257,5.935,4.007,14.789C46.526,34.465,46.81,37.686,46.71,38.809z"/>
	<path fill="#3A2716" d="M56.686,3.906c0,0-2.838-6.381,2.084-7.601c4.924-1.222,6.061-1.218,4.875,0.01
		c-1.186,1.227-4.998,5.245-1.422,7.602c-1.523,0.557-5.537,0.691-5.537,0.691V3.906z"/>
	<path fill="#3A2716" d="M66.604,4.176c0,0-0.529-4.389,0.013-6.289c0.431-1.342-0.023,2.46,1.54,3.693
		c1.563,1.234,2.01,1.798,0.785-1.563c-1.224-3.358-3.188-7.445-0.92-4.617c2.267,2.829,3.127,2.664,3.27,4.622
		c0.781,0.559,0.546-1.902-0.673-3.693c-1.218-1.792-0.896-2.62,0.005-1.869c0.902,0.753,2.8,2.773,3.354,5.568
		c0.553,2.795,1.787,2.312,1.565,0.82c-0.222-1.49-0.44-3.28-0.552-3.728c-0.112-0.449,2.254-0.251,2.234,2.076
		c-0.022,2.327-1.24,4.523-1.24,4.523S74.3,4.675,72.958,4.642C71.615,4.607,66.604,4.176,66.604,4.176z"/>
	<path fill="#3A2716" d="M46.787,4.588c0,0-0.216-3.72,0.456-4.614c0.673-0.896,0.156-1.555-0.481-0.611
		c-0.637,0.943-1.425,3.515-0.979,4.41C46.228,4.667,46.787,4.588,46.787,4.588z"/>
	<path fill="#3A2716" d="M43.994,2.985c0,0-1.04-3.581,1.669-5.589c2.708-2.008,2.356-2.88,1.513-2.294
		c-0.841,0.587-5.301,4.718-4.633,6.635C43.21,3.654,43.994,2.985,43.994,2.985z"/>
</g>
</svg>
